<svg xmlns="http://www.w3.org/2000/svg" xmlns:xlink="http://www.w3.org/1999/xlink" width="500" zoomAndPan="magnify" viewBox="0 0 375 374.999991" height="500" preserveAspectRatio="xMidYMid meet" version="1.0"><defs><g/></defs><g fill="#000000" fill-opacity="1"><g transform="translate(72.785156, 249.7068)"><g><path d="M 198.125 -197.390625 L 198.125 0 L 171.984375 0 L 166.828125 -26.515625 L 164.984375 -26.515625 C 158.597656 -16.691406 150.554688 -9.203125 140.859375 -4.046875 C 131.160156 1.109375 119.4375 3.6875 105.6875 3.6875 C 96.113281 3.6875 87.890625 2.148438 81.015625 -0.921875 C 74.140625 -3.992188 68.25 -7.984375 63.34375 -12.890625 L 61.875 -12.890625 C 62.363281 -8.472656 62.789062 -2.519531 63.15625 4.96875 C 63.519531 12.457031 63.703125 21.113281 63.703125 30.9375 L 63.703125 88.390625 L 31.296875 88.390625 L 31.296875 -197.390625 L 63.703125 -197.390625 L 63.703125 -69.96875 C 63.703125 -38.789062 78.4375 -23.203125 107.90625 -23.203125 C 129.75 -23.203125 144.84375 -29.335938 153.1875 -41.609375 C 161.539062 -53.890625 165.71875 -71.566406 165.71875 -94.640625 L 165.71875 -197.390625 Z M 198.125 -197.390625 "/></g></g></g></svg>